PathFileType	4	(X/Y/Z)	C:\Users\Basilio\Documents\Thesis Gigler\squatting_fais\c3dfiles\077\SLS_back_pre4\markers_experimental.trc
DataRate	CameraRate	NumFrames	NumMarkers	Units	OrigDataRate	OrigDataStartFrame	OrigNumFrames
200.000000	200.000000	4	60	mm	200.000000	1051	1402
Frame#	Time	FHD			LBHD			RBHD			C7			T10			CLAV			LSHO			LUUPA			LMUPA			LDUPA			LLEP			LMEP			LRAD			LUL			LRFIN			RSHO			RUPA1			RMUPA			RDUPA			RLEP			RMEP			RRAD			RUL			RUFIN			LASI			RASI			USACR			LSACR			RSACR			LTHI1			LTHI2			LTHI3			LTHI4			LLFC			LMFC			LTIB1			LTIB2			LTIB3			LTIB4			LLMAL			LHEE			LMT1			LMT2			LMT5			RTHI			RTHI2			RTHI3			RTHI4			RLFC			RMFC			RTIB1			RTIB2			RTIB3			RTIB4			RLMAL			RMMAL			RHEE			RMT1			RMT2			RMT5			
		X1	Y1	Z1	X2	Y2	Z2	X3	Y3	Z3	X4	Y4	Z4	X5	Y5	Z5	X6	Y6	Z6	X7	Y7	Z7	X8	Y8	Z8	X9	Y9	Z9	X10	Y10	Z10	X11	Y11	Z11	X12	Y12	Z12	X13	Y13	Z13	X14	Y14	Z14	X15	Y15	Z15	X16	Y16	Z16	X17	Y17	Z17	X18	Y18	Z18	X19	Y19	Z19	X20	Y20	Z20	X21	Y21	Z21	X22	Y22	Z22	X23	Y23	Z23	X24	Y24	Z24	X25	Y25	Z25	X26	Y26	Z26	X27	Y27	Z27	X28	Y28	Z28	X29	Y29	Z29	X30	Y30	Z30	X31	Y31	Z31	X32	Y32	Z32	X33	Y33	Z33	X34	Y34	Z34	X35	Y35	Z35	X36	Y36	Z36	X37	Y37	Z37	X38	Y38	Z38	X39	Y39	Z39	X40	Y40	Z40	X41	Y41	Z41	X42	Y42	Z42	X43	Y43	Z43	X44	Y44	Z44	X45	Y45	Z45	X46	Y46	Z46	X47	Y47	Z47	X48	Y48	Z48	X49	Y49	Z49	X50	Y50	Z50	X51	Y51	Z51	X52	Y52	Z52	X53	Y53	Z53	X54	Y54	Z54	X55	Y55	Z55	X56	Y56	Z56	X57	Y57	Z57	X58	Y58	Z58	X59	Y59	Z59	X60	Y60	Z60	

1052	5.255	-100.6340942382813	1849.3330078125	-1018.078552246094	-247.0179138183594	1746.926635742188	-1084.458862304688	-247.4964141845704	1740.1484375	-937.6871337890627	-290.6602172851563	1608.92578125	-1025.003662109375	-358.4137268066407	1294.271728515625	-1019.212829589844	-131.7474517822266	1545.841674804688	-1020.875610351563	-171.9898681640625	1595.08642578125	-1186.566772460938	-29.851224899292	1551.628540039063	-1317.508422851563	4.700852394104005	1577.849487304688	-1292.635375976563	36.81968307495118	1549.039794921875	-1334.834838867188	102.1532440185547	1556.413452148438	-1339.656860351563	109.7232513427735	1483.405395507813	-1320.04833984375	408.9118652343751	1575.830200195313	-1259.860717773438	402.5367431640626	1582.037231445313	-1340.535522460938	506.8228759765626	1590.120727539063	-1282.578979492188	-165.133529663086	1602.978149414063	-868.4688720703127	-24.27165412902833	1568.228637695313	-741.8778076171876	5.152647018432618	1593.150512695313	-773.1693115234377	45.28453826904298	1568.959716796875	-733.4751586914064	112.1132736206055	1574.388793945313	-739.1237792968751	117.9816436767578	1499.248046875	-760.5803222656251	395.3870239257814	1598.266723632813	-843.7229614257815	408.6471252441407	1606.51416015625	-763.2518920898439	491.4682922363282	1616.791381835938	-845.0596923828127	-220.3357238769532	1051.005493164063	-1135.814086914063	-238.6914672851563	1080.492431640625	-860.693298339844	-396.1295776367189	1203.5947265625	-1017.530883789063	-409.1904602050782	1176.0830078125	-1046.716430664063	-418.3656311035157	1175.479858398438	-991.171569824219	-296.2829284667969	851.590515136719	-1185.755737304688	-268.0170593261719	773.5406494140627	-1179.986083984375	-218.1906127929688	774.9756469726565	-1174.005126953125	-295.1649169921876	722.9872436523439	-1159.130859375	-266.1299438476563	576.1688842773439	-1129.704467773438	-267.3839111328126	562.9143676757814	-996.5874023437502	-254.6007232666016	354.5149536132813	-1046.44873046875	-278.0180358886719	308.7964477539063	-1117.944091796875	-251.1878204345704	306.0707702636719	-1078.557373046875	-269.3289794921876	229.5031433105469	-1045.766723632813	-338.1781005859376	114.8895797729492	-1090.608764648438	-397.9275207519532	84.84484863281251	-1043.656372070313	-186.8544616699219	52.2251319885254	-1017.326232910156	-180.9529418945313	59.84803009033205	-1059.638671875	-316.3828125000001	125.5527648925782	-1005.289428710938	-282.6184082031251	772.7757568359377	-775.0605468750002	-232.5482482910157	727.4496459960939	-762.6752319335939	-199.3469848632813	734.2377929687501	-765.1799926757814	-243.5059051513672	645.2139892578126	-779.5723876953127	-251.2405395507813	591.9724121093751	-782.0010986328127	-204.8613433837891	563.4146728515626	-896.500427246094	-296.5367431640626	458.6373291015626	-801.1663208007815	-403.2298889160157	445.4090270996095	-798.529724121094	-370.0394287109376	413.240692138672	-808.5231933593752	-383.4461364746094	373.2695312500001	-852.2919921875002	-558.5874633789064	284.1326599121094	-854.8154296875002	-508.9813232421876	269.3174133300782	-929.8731689453127	-620.1453247070314	269.4078979492188	-927.063415527344	-431.4627685546876	169.3141632080078	-854.9381103515627	-442.5046386718751	178.6472473144532	-817.7624511718752	-480.6837158203126	171.7097930908203	-779.2715454101565	
1053	5.26	-101.3004150390625	1849.97998046875	-1017.659301757813	-247.5748748779297	1746.908325195313	-1084.067993164063	-248.4258880615235	1740.799438476563	-938.0290527343752	-291.2099304199219	1609.31689453125	-1024.561157226563	-358.5784301757813	1294.574829101563	-1019.01318359375	-132.075439453125	1546.441650390625	-1020.363037109375	-172.2059936523438	1595.393188476563	-1186.224243164063	-29.8915138244629	1551.85693359375	-1316.865966796875	4.435473918914796	1578.259765625	-1292.13232421875	37.03661727905274	1549.233642578125	-1334.232788085938	101.9944686889649	1556.643676757813	-1339.16552734375	109.4370269775391	1483.82421875	-1319.454345703125	408.5523376464845	1576.158569335938	-1259.203002929688	402.210906982422	1582.480102539063	-1339.713012695313	506.2190856933595	1590.409912109375	-1281.76904296875	-165.5839538574219	1603.379272460938	-867.9185791015627	-24.76257133483887	1568.8720703125	-741.3969116210939	4.511664867401124	1593.540649414063	-772.6030273437502	44.6815414428711	1569.584838867188	-732.7560424804689	111.6288986206055	1574.626953125	-738.6678466796876	117.4885177612305	1499.74267578125	-759.8351440429689	394.6237792968751	1599.062255859375	-842.6968994140627	408.0578613281251	1606.94189453125	-762.3375854492189	491.0845947265626	1617.48681640625	-844.2725219726565	-220.6489868164063	1051.363525390625	-1135.102905273438	-238.6648406982422	1081.0986328125	-860.1553344726565	-396.213592529297	1203.8134765625	-1017.2138671875	-409.3545532226564	1176.20654296875	-1046.354125976563	-418.387664794922	1175.688110351563	-990.7716064453127	-296.7695312500001	851.6617431640627	-1185.228271484375	-268.3279418945313	773.528991699219	-1179.34765625	-218.6504821777344	775.0258789062502	-1173.560913085938	-295.5887145996094	723.1719360351564	-1158.61962890625	-266.8242187500001	576.2516479492189	-1129.150634765625	-267.6897583007813	563.0261230468751	-996.045593261719	-254.8879089355469	354.5764160156251	-1046.195678710938	-277.6717834472657	308.7580261230469	-1117.502075195313	-251.488265991211	306.1278381347657	-1078.398559570313	-269.5657348632813	229.5760955810547	-1045.6220703125	-338.1209716796876	114.8538818359375	-1090.505737304688	-398.5175170898439	84.56078338623048	-1043.968139648438	-186.8619689941407	52.14122009277345	-1017.285339355469	-181.5630950927735	58.95757293701173	-1059.473510742188	-316.3750000000001	125.5341491699219	-1005.148498535156	-282.5180664062501	773.342224121094	-774.4685668945315	-232.6725616455079	727.7548828125001	-762.1562500000001	-199.4551544189454	734.6517944335939	-764.6439208984376	-243.5572509765626	645.5866088867189	-778.8406372070315	-250.8768463134766	591.8706665039064	-780.731384277344	-205.6150970458985	563.9838256835939	-895.5926513671877	-293.8313293457032	457.5051574707032	-799.0521240234377	-400.0759887695314	442.3616027832032	-795.526550292969	-366.3360290527344	410.6729125976564	-805.8195800781252	-379.3947143554688	370.5647888183594	-849.4555664062502	-552.7861938476564	277.5526733398438	-850.0964355468752	-503.2220458984376	263.6064758300782	-925.517272949219	-614.7077636718751	261.7787780761719	-921.8464355468752	-423.316864013672	165.5599060058594	-851.0850830078127	-434.2045898437501	174.8177642822266	-813.681091308594	-472.1847229003907	167.0443725585938	-775.106384277344	
1054	5.265	-101.7358169555664	1850.21337890625	-1017.145690917969	-248.1963195800782	1747.513671875	-1083.595703125	-249.015853881836	1741.172485351563	-937.5454101562502	-291.7032470703126	1609.746215820313	-1024.223999023438	-358.8037414550782	1294.896728515625	-1018.664245605469	-132.4038391113282	1546.86083984375	-1019.931091308594	-172.5091247558594	1595.558471679688	-1185.839111328125	-29.86663246154786	1552.188720703125	-1316.087890625	4.072302341461183	1578.70703125	-1291.443969726563	37.17214584350587	1549.502685546875	-1333.564575195313	101.0878982543946	1557.184204101563	-1338.464477539063	109.512435913086	1483.954833984375	-1318.611328125	408.1044311523439	1576.734985351563	-1258.571166992188	401.9992065429689	1582.89013671875	-1339.001342773438	505.9341430664064	1590.942504882813	-1281.052368164063	-166.1448211669922	1603.816162109375	-867.3739013671877	-25.25827980041505	1569.306518554688	-740.9286499023439	3.996275186538697	1594.249267578125	-771.914733886719	44.18447494506837	1570.021118164063	-732.1702880859376	111.1181716918946	1575.488525390625	-737.7807617187501	116.8754272460938	1500.212036132813	-759.2136230468751	394.2687988281251	1599.757934570313	-841.7819824218752	407.4869995117189	1607.711303710938	-761.4869384765626	490.4570922851564	1618.097045898438	-843.3785400390627	-220.7082214355469	1051.479736328125	-1134.567504882813	-238.515609741211	1081.77685546875	-859.4233398437502	-396.3319091796876	1203.848754882813	-1016.925659179688	-409.5148315429689	1176.300170898438	-1046.016845703125	-418.3043212890626	1176.001831054688	-990.3851318359377	-297.0319824218751	852.0142211914065	-1184.572387695313	-268.6421203613282	773.7037353515627	-1178.730712890625	-219.0708007812501	775.3699340820315	-1173.075439453125	-295.9544067382813	723.3151245117189	-1158.071044921875	-267.3344726562501	576.2239379882814	-1128.590454101563	-268.3059387207032	563.0341796875001	-995.515808105469	-255.1641540527344	354.7990417480469	-1045.939453125	-278.6983337402344	309.1861877441407	-1117.537109375	-251.8470306396485	306.1559448242188	-1078.34033203125	-269.6667785644532	229.6339721679688	-1045.439453125	-338.1761169433594	114.948715209961	-1090.412109375	-398.5711669921876	84.5923309326172	-1043.87255859375	-186.8205261230469	52.2265968322754	-1017.262939453125	-181.6877593994141	58.98652267456056	-1059.544677734375	-316.3342590332032	125.4965286254883	-1005.02685546875	-282.6063537597657	773.6693115234377	-773.744323730469	-232.5774383544922	728.3439331054689	-761.7218627929689	-199.5063781738282	735.0125732421876	-764.0407104492189	-243.6665954589844	646.0974731445314	-778.0982055664065	-250.5092010498047	591.8897705078126	-779.5200195312502	-204.2440490722657	563.9169921875001	-894.3776855468752	-290.8261718750001	457.3436584472657	-797.2835693359377	-397.2100219726564	439.343231201172	-792.5901489257815	-362.7427062988282	408.3244018554689	-803.0944824218752	-375.2859802246094	367.7450561523438	-846.624938964844	-546.9495239257814	271.2948913574219	-845.5659179687502	-497.8587646484376	258.0999755859376	-921.2439575195315	-608.6473999023439	253.8187713623047	-916.6700439453127	-415.3945922851564	161.7315368652344	-847.382263183594	-426.0938720703126	170.6788482666016	-810.0960083007815	-463.4105224609376	162.4664306640625	-770.8317871093752	
1055	5.27	-102.2105407714844	1850.67724609375	-1016.724060058594	-248.8988800048829	1748.0810546875	-1083.306884765625	-249.5616607666016	1741.314086914063	-936.5562744140627	-292.2768249511719	1610.254760742188	-1023.745971679688	-359.0699157714844	1295.266357421875	-1018.311889648438	-132.9285888671875	1547.327880859375	-1019.40478515625	-172.6374206542969	1595.821166992188	-1185.31005859375	-30.13924217224122	1552.517578125	-1315.547607421875	3.620903253555299	1579.010131835938	-1290.824340820313	36.67644119262696	1550.025756835938	-1332.908081054688	100.6312484741211	1557.6494140625	-1337.813720703125	109.2693405151367	1484.210327148438	-1317.845092773438	407.7510986328126	1577.177001953125	-1257.722778320313	401.460662841797	1583.4052734375	-1338.391479492188	505.7024536132814	1591.651123046875	-1280.284423828125	-166.6988677978516	1604.272094726563	-866.8870239257815	-25.79825592041016	1569.78369140625	-740.3336791992189	3.480607986450196	1594.98583984375	-771.3974609375002	43.57672882080079	1570.453857421875	-731.5120239257814	110.5309524536133	1576.0751953125	-737.0054321289064	116.3953170776367	1500.95654296875	-758.6422729492189	393.6727905273439	1600.272338867188	-840.853454589844	407.2693176269532	1608.595947265625	-760.2220458984376	489.8423156738282	1618.802734375	-842.4042968750002	-220.7314910888672	1051.432373046875	-1133.979858398438	-238.4228820800782	1082.44482421875	-858.8331298828127	-396.5039978027345	1203.958862304688	-1016.498596191406	-409.6214599609376	1176.281494140625	-1045.533081054688	-418.3976440429689	1176.1630859375	-989.9636840820315	-297.3990478515626	852.2563476562502	-1183.935668945313	-269.0320129394532	773.793884277344	-1178.259643554688	-219.3179321289063	775.483093261719	-1172.523071289063	-296.3812561035157	723.5190429687501	-1157.601684570313	-267.7663879394532	576.4447631835939	-1128.22998046875	-268.6888427734376	563.1269531250001	-995.0735473632815	-255.5429992675782	355.0278625488282	-1045.699340820313	-279.7662658691407	309.3009033203126	-1117.473022460938	-252.0457305908204	306.1801757812501	-1078.095336914063	-269.7480163574219	229.6328277587891	-1045.2578125	-338.2618713378907	114.9637145996094	-1090.294067382813	-398.5653076171876	84.59344482421876	-1043.80712890625	-186.8361968994141	52.14730834960939	-1017.247985839844	-181.6317138671875	58.92782592773439	-1059.428100585938	-316.3295898437501	125.5063171386719	-1004.861877441406	-282.6699218750001	774.0830688476565	-773.076599121094	-232.9376220703126	728.6586914062501	-760.9073486328126	-199.6788482666016	735.1321411132814	-763.2857055664064	-243.8176727294922	646.5193481445314	-777.2519531250002	-250.3717041015626	591.6641235351564	-778.1527099609377	-204.2065124511719	564.2429809570314	-893.3004150390627	-288.3108215332032	456.1967773437501	-795.5977172851565	-394.1555480957032	436.2900390625001	-789.7402954101565	-359.3748474121094	405.5267639160157	-800.4710083007815	-371.4485168457032	366.0718994140626	-843.720886230469	-541.1315917968751	265.0838928222657	-840.9228515625002	-492.0538330078126	252.6586151123047	-916.9548950195315	-603.4851684570314	246.7455596923829	-911.5360107421877	-407.5450439453126	158.1138305664063	-843.642761230469	-417.9533081054689	166.9421691894532	-806.2200317382815	-454.850311279297	157.8717498779297	-766.8442993164064	
